%TF.GenerationSoftware,KiCad,Pcbnew,7.0.10*%
%TF.CreationDate,2024-01-31T17:44:34+01:00*%
%TF.ProjectId,minimouse,6d696e69-6d6f-4757-9365-2e6b69636164,rev?*%
%TF.SameCoordinates,Original*%
%TF.FileFunction,Soldermask,Top*%
%TF.FilePolarity,Negative*%
%FSLAX46Y46*%
G04 Gerber Fmt 4.6, Leading zero omitted, Abs format (unit mm)*
G04 Created by KiCad (PCBNEW 7.0.10) date 2024-01-31 17:44:34*
%MOMM*%
%LPD*%
G01*
G04 APERTURE LIST*
G04 Aperture macros list*
%AMRoundRect*
0 Rectangle with rounded corners*
0 $1 Rounding radius*
0 $2 $3 $4 $5 $6 $7 $8 $9 X,Y pos of 4 corners*
0 Add a 4 corners polygon primitive as box body*
4,1,4,$2,$3,$4,$5,$6,$7,$8,$9,$2,$3,0*
0 Add four circle primitives for the rounded corners*
1,1,$1+$1,$2,$3*
1,1,$1+$1,$4,$5*
1,1,$1+$1,$6,$7*
1,1,$1+$1,$8,$9*
0 Add four rect primitives between the rounded corners*
20,1,$1+$1,$2,$3,$4,$5,0*
20,1,$1+$1,$4,$5,$6,$7,0*
20,1,$1+$1,$6,$7,$8,$9,0*
20,1,$1+$1,$8,$9,$2,$3,0*%
G04 Aperture macros list end*
%ADD10R,1.700000X1.700000*%
%ADD11O,1.700000X1.700000*%
%ADD12RoundRect,0.225000X0.225000X0.250000X-0.225000X0.250000X-0.225000X-0.250000X0.225000X-0.250000X0*%
%ADD13RoundRect,0.075000X-0.075000X-0.662500X0.075000X-0.662500X0.075000X0.662500X-0.075000X0.662500X0*%
%ADD14RoundRect,0.075000X-0.662500X-0.075000X0.662500X-0.075000X0.662500X0.075000X-0.662500X0.075000X0*%
%ADD15RoundRect,0.200000X-0.200000X-0.275000X0.200000X-0.275000X0.200000X0.275000X-0.200000X0.275000X0*%
%ADD16C,1.000000*%
%ADD17RoundRect,0.225000X0.250000X-0.225000X0.250000X0.225000X-0.250000X0.225000X-0.250000X-0.225000X0*%
%ADD18RoundRect,0.225000X-0.250000X0.225000X-0.250000X-0.225000X0.250000X-0.225000X0.250000X0.225000X0*%
%ADD19RoundRect,0.200000X-0.275000X0.200000X-0.275000X-0.200000X0.275000X-0.200000X0.275000X0.200000X0*%
%ADD20C,1.500000*%
%ADD21RoundRect,0.062500X-0.325000X-0.062500X0.325000X-0.062500X0.325000X0.062500X-0.325000X0.062500X0*%
%ADD22RoundRect,0.062500X-0.062500X-0.325000X0.062500X-0.325000X0.062500X0.325000X-0.062500X0.325000X0*%
%ADD23R,1.800000X1.800000*%
%ADD24RoundRect,0.225000X-0.225000X-0.250000X0.225000X-0.250000X0.225000X0.250000X-0.225000X0.250000X0*%
%ADD25RoundRect,0.250000X-0.362500X-1.425000X0.362500X-1.425000X0.362500X1.425000X-0.362500X1.425000X0*%
%ADD26RoundRect,0.200000X0.200000X0.275000X-0.200000X0.275000X-0.200000X-0.275000X0.200000X-0.275000X0*%
%ADD27RoundRect,0.200000X0.275000X-0.200000X0.275000X0.200000X-0.275000X0.200000X-0.275000X-0.200000X0*%
%ADD28RoundRect,0.150000X0.512500X0.150000X-0.512500X0.150000X-0.512500X-0.150000X0.512500X-0.150000X0*%
%ADD29R,1.000000X1.000000*%
%ADD30O,1.000000X1.000000*%
%ADD31RoundRect,0.250000X0.362500X1.425000X-0.362500X1.425000X-0.362500X-1.425000X0.362500X-1.425000X0*%
%ADD32RoundRect,0.218750X0.218750X0.256250X-0.218750X0.256250X-0.218750X-0.256250X0.218750X-0.256250X0*%
G04 APERTURE END LIST*
D10*
%TO.C,U4*%
X146190000Y-69125000D03*
D11*
X148730000Y-69125000D03*
X151270000Y-69125000D03*
X153810000Y-69125000D03*
%TD*%
D12*
%TO.C,C6*%
X158260000Y-83500000D03*
X156710000Y-83500000D03*
%TD*%
D13*
%TO.C,U1*%
X147100000Y-85387500D03*
X147600000Y-85387500D03*
X148100000Y-85387500D03*
X148600000Y-85387500D03*
X149100000Y-85387500D03*
X149600000Y-85387500D03*
X150100000Y-85387500D03*
X150600000Y-85387500D03*
X151100000Y-85387500D03*
X151600000Y-85387500D03*
X152100000Y-85387500D03*
X152600000Y-85387500D03*
D14*
X154012500Y-86800000D03*
X154012500Y-87300000D03*
X154012500Y-87800000D03*
X154012500Y-88300000D03*
X154012500Y-88800000D03*
X154012500Y-89300000D03*
X154012500Y-89800000D03*
X154012500Y-90300000D03*
X154012500Y-90800000D03*
X154012500Y-91300000D03*
X154012500Y-91800000D03*
X154012500Y-92300000D03*
D13*
X152600000Y-93712500D03*
X152100000Y-93712500D03*
X151600000Y-93712500D03*
X151100000Y-93712500D03*
X150600000Y-93712500D03*
X150100000Y-93712500D03*
X149600000Y-93712500D03*
X149100000Y-93712500D03*
X148600000Y-93712500D03*
X148100000Y-93712500D03*
X147600000Y-93712500D03*
X147100000Y-93712500D03*
D14*
X145687500Y-92300000D03*
X145687500Y-91800000D03*
X145687500Y-91300000D03*
X145687500Y-90800000D03*
X145687500Y-90300000D03*
X145687500Y-89800000D03*
X145687500Y-89300000D03*
X145687500Y-88800000D03*
X145687500Y-88300000D03*
X145687500Y-87800000D03*
X145687500Y-87300000D03*
X145687500Y-86800000D03*
%TD*%
D15*
%TO.C,R1*%
X160330000Y-75230000D03*
X161980000Y-75230000D03*
%TD*%
D16*
%TO.C,M2*%
X131000000Y-114000000D03*
X131000000Y-132000000D03*
%TD*%
D17*
%TO.C,C20*%
X119440000Y-94055000D03*
X119440000Y-92505000D03*
%TD*%
D15*
%TO.C,R20*%
X127295000Y-80600000D03*
X128945000Y-80600000D03*
%TD*%
D18*
%TO.C,C9*%
X165520000Y-91562500D03*
X165520000Y-93112500D03*
%TD*%
D19*
%TO.C,R22*%
X121960000Y-92450000D03*
X121960000Y-94100000D03*
%TD*%
D20*
%TO.C,BOOT0*%
X157150000Y-78150000D03*
%TD*%
D11*
%TO.C,J4*%
X116900000Y-96800000D03*
X119440000Y-96800000D03*
X121980000Y-96800000D03*
X124520000Y-96800000D03*
X127060000Y-96800000D03*
D10*
X129600000Y-96800000D03*
%TD*%
D15*
%TO.C,R13*%
X163310000Y-97770000D03*
X161660000Y-97770000D03*
%TD*%
D19*
%TO.C,R4*%
X145500600Y-97375000D03*
X145500600Y-99025000D03*
%TD*%
D12*
%TO.C,C4*%
X142425000Y-86790000D03*
X140875000Y-86790000D03*
%TD*%
D21*
%TO.C,U2*%
X148512500Y-104330000D03*
X148512500Y-104830000D03*
X148512500Y-105330000D03*
X148512500Y-105830000D03*
D22*
X149250000Y-106567500D03*
X149750000Y-106567500D03*
X150250000Y-106567500D03*
X150750000Y-106567500D03*
D21*
X151487500Y-105830000D03*
X151487500Y-105330000D03*
X151487500Y-104830000D03*
X151487500Y-104330000D03*
D22*
X150750000Y-103592500D03*
X150250000Y-103592500D03*
X149750000Y-103592500D03*
X149250000Y-103592500D03*
D23*
X150000000Y-105080000D03*
%TD*%
D19*
%TO.C,R9*%
X148440000Y-75530000D03*
X148440000Y-77180000D03*
%TD*%
%TO.C,R24*%
X124500000Y-92450000D03*
X124500000Y-94100000D03*
%TD*%
D10*
%TO.C,U4*%
X146190000Y-69125000D03*
D11*
X148730000Y-69125000D03*
X151270000Y-69125000D03*
X153810000Y-69125000D03*
%TD*%
D12*
%TO.C,C12*%
X171700000Y-82670000D03*
X170150000Y-82670000D03*
%TD*%
D24*
%TO.C,C5*%
X156395000Y-93700000D03*
X157945000Y-93700000D03*
%TD*%
D19*
%TO.C,R15*%
X184950000Y-89975000D03*
X184950000Y-88325000D03*
%TD*%
D16*
%TO.C,M1*%
X169000000Y-132000000D03*
X169000000Y-114000000D03*
%TD*%
D19*
%TO.C,R23*%
X174540000Y-92905000D03*
X174540000Y-94555000D03*
%TD*%
%TO.C,R16*%
X182680000Y-84995000D03*
X182680000Y-86645000D03*
%TD*%
D15*
%TO.C,R18*%
X173530000Y-74610000D03*
X175180000Y-74610000D03*
%TD*%
D10*
%TO.C,J5*%
X151270000Y-134775000D03*
D11*
X148730000Y-134775000D03*
%TD*%
D12*
%TO.C,C3*%
X145875000Y-81860000D03*
X144325000Y-81860000D03*
%TD*%
D25*
%TO.C,R11*%
X159200000Y-104550000D03*
X165125000Y-104550000D03*
%TD*%
D10*
%TO.C,J3*%
X170960000Y-97360000D03*
D11*
X173500000Y-97360000D03*
X176040000Y-97360000D03*
X178580000Y-97360000D03*
X181120000Y-97360000D03*
X183660000Y-97360000D03*
%TD*%
D19*
%TO.C,R21*%
X176450000Y-92955000D03*
X176450000Y-94605000D03*
%TD*%
D15*
%TO.C,R8*%
X127295000Y-83180000D03*
X128945000Y-83180000D03*
%TD*%
D26*
%TO.C,R25*%
X160155000Y-96190000D03*
X158505000Y-96190000D03*
%TD*%
D27*
%TO.C,R7*%
X152179400Y-98251000D03*
X152179400Y-96601000D03*
%TD*%
D19*
%TO.C,R2*%
X142436600Y-97328000D03*
X142436600Y-98978000D03*
%TD*%
D24*
%TO.C,C7*%
X150735000Y-110700000D03*
X149185000Y-110700000D03*
%TD*%
D26*
%TO.C,R10*%
X155465000Y-97750000D03*
X157115000Y-97750000D03*
%TD*%
D24*
%TO.C,C8*%
X161715000Y-99320000D03*
X163265000Y-99320000D03*
%TD*%
D19*
%TO.C,R3*%
X144000600Y-99025000D03*
X144000600Y-97375000D03*
%TD*%
D12*
%TO.C,C2*%
X141325000Y-90250000D03*
X139775000Y-90250000D03*
%TD*%
D28*
%TO.C,U3*%
X176160000Y-84600000D03*
X176160000Y-83650000D03*
X176160000Y-82700000D03*
X173885000Y-82700000D03*
X173885000Y-84600000D03*
%TD*%
D24*
%TO.C,C1*%
X175305000Y-86240000D03*
X176855000Y-86240000D03*
%TD*%
D17*
%TO.C,C19*%
X178230000Y-93005000D03*
X178230000Y-94555000D03*
%TD*%
D19*
%TO.C,R5*%
X147000600Y-97375000D03*
X147000600Y-99025000D03*
%TD*%
D29*
%TO.C,J1*%
X160990000Y-83510000D03*
D30*
X162260000Y-83510000D03*
X160990000Y-84780000D03*
X162260000Y-84780000D03*
X160990000Y-86050000D03*
X162260000Y-86050000D03*
X160990000Y-87320000D03*
X162260000Y-87320000D03*
X160990000Y-88590000D03*
X162260000Y-88590000D03*
%TD*%
D10*
%TO.C,J2*%
X124590000Y-75540000D03*
D11*
X124590000Y-78080000D03*
X124590000Y-80620000D03*
X124590000Y-83160000D03*
%TD*%
D31*
%TO.C,R12*%
X141165000Y-104480000D03*
X135240000Y-104480000D03*
%TD*%
D19*
%TO.C,R14*%
X168970000Y-90470000D03*
X168970000Y-92120000D03*
%TD*%
D27*
%TO.C,R19*%
X150040000Y-77180000D03*
X150040000Y-75530000D03*
%TD*%
D17*
%TO.C,C11*%
X179700000Y-81890000D03*
X179700000Y-80340000D03*
%TD*%
D18*
%TO.C,C17*%
X153830000Y-71895000D03*
X153830000Y-73445000D03*
%TD*%
D32*
%TO.C,D1*%
X178565000Y-76470000D03*
X176990000Y-76470000D03*
%TD*%
D24*
%TO.C,C18*%
X127355000Y-78110000D03*
X128905000Y-78110000D03*
%TD*%
D27*
%TO.C,R6*%
X150630000Y-98250000D03*
X150630000Y-96600000D03*
%TD*%
M02*
