%TF.GenerationSoftware,KiCad,Pcbnew,7.0.10*%
%TF.CreationDate,2024-01-31T17:44:34+01:00*%
%TF.ProjectId,minimouse,6d696e69-6d6f-4757-9365-2e6b69636164,rev?*%
%TF.SameCoordinates,Original*%
%TF.FileFunction,Soldermask,Bot*%
%TF.FilePolarity,Negative*%
%FSLAX46Y46*%
G04 Gerber Fmt 4.6, Leading zero omitted, Abs format (unit mm)*
G04 Created by KiCad (PCBNEW 7.0.10) date 2024-01-31 17:44:34*
%MOMM*%
%LPD*%
G01*
G04 APERTURE LIST*
%ADD10R,1.700000X1.700000*%
%ADD11O,1.700000X1.700000*%
%ADD12C,1.000000*%
%ADD13R,1.000000X1.000000*%
%ADD14O,1.000000X1.000000*%
G04 APERTURE END LIST*
D10*
%TO.C,U4*%
X146190000Y-69125000D03*
D11*
X148730000Y-69125000D03*
X151270000Y-69125000D03*
X153810000Y-69125000D03*
%TD*%
D12*
%TO.C,M2*%
X131000000Y-114000000D03*
X131000000Y-132000000D03*
%TD*%
D11*
%TO.C,J4*%
X116900000Y-96800000D03*
X119440000Y-96800000D03*
X121980000Y-96800000D03*
X124520000Y-96800000D03*
X127060000Y-96800000D03*
D10*
X129600000Y-96800000D03*
%TD*%
%TO.C,U4*%
X146190000Y-69125000D03*
D11*
X148730000Y-69125000D03*
X151270000Y-69125000D03*
X153810000Y-69125000D03*
%TD*%
D12*
%TO.C,M1*%
X169000000Y-132000000D03*
X169000000Y-114000000D03*
%TD*%
D10*
%TO.C,J5*%
X151270000Y-134775000D03*
D11*
X148730000Y-134775000D03*
%TD*%
D10*
%TO.C,J3*%
X170960000Y-97360000D03*
D11*
X173500000Y-97360000D03*
X176040000Y-97360000D03*
X178580000Y-97360000D03*
X181120000Y-97360000D03*
X183660000Y-97360000D03*
%TD*%
D13*
%TO.C,J1*%
X160990000Y-83510000D03*
D14*
X162260000Y-83510000D03*
X160990000Y-84780000D03*
X162260000Y-84780000D03*
X160990000Y-86050000D03*
X162260000Y-86050000D03*
X160990000Y-87320000D03*
X162260000Y-87320000D03*
X160990000Y-88590000D03*
X162260000Y-88590000D03*
%TD*%
D10*
%TO.C,J2*%
X124590000Y-75540000D03*
D11*
X124590000Y-78080000D03*
X124590000Y-80620000D03*
X124590000Y-83160000D03*
%TD*%
M02*
